<?xml version="1.0" standalone="no"?>
<!DOCTYPE svg PUBLIC "-//W3C//DTD SVG 20010904//EN"
 "http://www.w3.org/TR/2001/REC-SVG-20010904/DTD/svg10.dtd">
<svg version="1.0" xmlns="http://www.w3.org/2000/svg"
 width="512.000000pt" height="512.000000pt" viewBox="0 0 512.000000 512.000000"
 preserveAspectRatio="xMidYMid meet">
<metadata>
Created by potrace 1.14, written by Peter Selinger 2001-2017
</metadata>
<g transform="translate(0.000000,512.000000) scale(0.100000,-0.100000)"
fill="#000000" stroke="none">
<path d="M2517 5110 c-15 -10 -47 -60 -47 -75 0 -15 33 -66 48 -73 9 -5 73
-13 142 -16 157 -8 189 -12 325 -37 728 -135 1342 -585 1689 -1240 36 -69 66
-130 66 -135 0 -5 -18 -8 -39 -6 -32 3 -45 -1 -65 -22 -29 -28 -34 -79 -13
-108 20 -26 259 -142 290 -141 15 0 37 9 49 19 29 27 138 248 138 282 0 39
-31 72 -75 79 -33 5 -39 2 -72 -34 l-36 -40 -73 145 c-351 696 -1002 1198
-1764 1356 -63 13 -144 28 -180 32 -36 4 -74 9 -85 10 -75 10 -282 13 -298 4z"/>
<path d="M1511 5083 c-12 -10 -24 -35 -28 -55 -5 -32 -1 -41 23 -66 16 -16 36
-31 44 -34 19 -7 27 -2 -131 -81 -251 -125 -451 -269 -655 -471 -321 -319
-531 -671 -663 -1111 -24 -80 -66 -275 -75 -350 -4 -27 -9 -66 -11 -85 -12
-93 -16 -277 -6 -302 14 -36 60 -59 96 -49 52 13 63 43 70 187 3 72 8 142 10
155 2 13 7 47 11 74 4 28 8 52 9 55 0 3 5 28 9 55 19 123 83 331 148 484 197
463 534 853 963 1114 91 55 248 137 263 137 4 0 6 -18 4 -39 -7 -69 55 -110
120 -80 26 11 151 246 154 287 2 40 -35 71 -157 132 -125 63 -163 71 -198 43z"/>
<path d="M2390 4602 c-32 -2 -253 -37 -297 -47 -10 -2 -65 -18 -121 -35 -206
-61 -388 -149 -567 -271 -132 -90 -169 -122 -300 -253 -170 -172 -283 -330
-391 -553 -50 -101 -135 -337 -148 -409 -2 -16 -7 -40 -10 -54 -7 -28 -22
-123 -32 -190 -10 -76 -13 -341 -3 -415 4 -38 10 -88 13 -110 4 -35 14 -90 30
-160 80 -371 301 -759 582 -1025 112 -106 143 -130 278 -221 225 -152 544
-281 771 -314 23 -3 50 -7 60 -9 108 -20 388 -29 492 -15 32 4 83 10 113 14
30 3 62 8 70 10 8 2 26 6 40 9 245 48 513 160 727 304 502 338 823 864 897
1470 12 100 14 387 3 447 -3 17 -8 52 -11 78 -22 195 -116 481 -223 676 -42
77 -166 268 -182 281 -3 3 -19 23 -36 45 -16 22 -79 90 -140 151 -235 236
-529 415 -838 509 -48 14 -100 29 -114 31 -15 3 -29 7 -33 9 -8 5 -172 33
-240 41 -59 7 -333 11 -390 6z"/>
<path d="M4992 2629 c-37 -22 -39 -30 -47 -175 -6 -122 -15 -214 -29 -280 -2
-12 -7 -38 -10 -59 -34 -211 -153 -531 -280 -750 -187 -323 -490 -637 -801
-831 -76 -47 -279 -154 -292 -154 -5 0 -7 18 -5 39 3 32 -1 45 -22 65 -32 32
-87 35 -114 6 -20 -22 -131 -238 -137 -268 -9 -47 22 -75 153 -140 70 -35 140
-63 155 -63 37 1 77 45 77 83 0 29 -37 76 -70 91 -13 6 -13 8 0 13 83 36 298
155 391 216 416 275 755 677 944 1118 74 172 154 433 170 557 2 12 6 34 9 50
22 100 43 395 32 439 -13 49 -78 72 -124 43z"/>
<path d="M169 1853 c-32 -19 -149 -250 -149 -293 0 -37 44 -80 83 -80 28 0 76
37 90 70 6 13 8 13 13 0 4 -8 37 -74 74 -146 201 -396 490 -721 860 -969 118
-78 319 -188 420 -229 25 -10 59 -24 75 -31 79 -34 333 -109 410 -120 22 -4
56 -10 75 -15 113 -28 445 -49 480 -30 17 9 50 59 50 75 0 15 -33 66 -48 73
-9 5 -71 12 -137 16 -199 10 -354 34 -530 83 -658 180 -1196 620 -1509 1233
l-56 107 44 -4 c38 -5 48 -2 70 20 29 29 34 80 12 110 -15 19 -245 136 -280
142 -11 2 -33 -3 -47 -12z"/>
</g>
</svg>
